<svg width="210" height="48" viewBox="0 0 210 48" fill="none" xmlns="http://www.w3.org/2000/svg">
<g clip-path="url(#clip0_1_111)">
<path d="M39.3636 0.772202C34.7478 -0.888638 29.3847 0.129442 25.6861 3.828C21.9876 7.52652 20.9695 12.8897 22.6303 17.5055L0 40.1358L7.86416 48L30.4945 25.3696C35.1104 27.0304 40.4735 26.0123 44.172 22.3138C47.8706 18.6152 48.8887 13.2521 47.2278 8.63628L39.2697 16.5944L33.6014 14.3986L31.4055 8.73028L39.3636 0.772202ZM9.4472 38.5528C10.3497 39.4553 10.3497 40.9185 9.4472 41.821C8.54472 42.7235 7.08148 42.7235 6.179 41.821C5.27648 40.9185 5.27648 39.4552 6.179 38.5528C7.08148 37.6503 8.54472 37.6503 9.4472 38.5528Z" fill="white"/>
</g>
<path d="M94.82 17L90.24 31H86.76L83.68 21.52L80.5 31H77.04L72.44 17H75.8L78.96 26.84L82.26 17H85.26L88.46 26.92L91.72 17H94.82ZM98.9786 21.66C99.3519 21.14 99.8519 20.7467 100.479 20.48C101.119 20.2133 101.852 20.08 102.679 20.08V22.96C102.332 22.9333 102.099 22.92 101.979 22.92C101.085 22.92 100.385 23.1733 99.8786 23.68C99.3719 24.1733 99.1186 24.92 99.1186 25.92V31H95.9986V20.24H98.9786V21.66ZM114.976 25.66C114.976 25.7 114.956 25.98 114.916 26.5H106.776C106.923 27.1667 107.269 27.6933 107.816 28.08C108.363 28.4667 109.043 28.66 109.856 28.66C110.416 28.66 110.909 28.58 111.336 28.42C111.776 28.2467 112.183 27.98 112.556 27.62L114.216 29.42C113.203 30.58 111.723 31.16 109.776 31.16C108.563 31.16 107.489 30.9267 106.556 30.46C105.623 29.98 104.903 29.32 104.396 28.48C103.889 27.64 103.636 26.6867 103.636 25.62C103.636 24.5667 103.883 23.62 104.376 22.78C104.883 21.9267 105.569 21.2667 106.436 20.8C107.316 20.32 108.296 20.08 109.376 20.08C110.429 20.08 111.383 20.3067 112.236 20.76C113.089 21.2133 113.756 21.8667 114.236 22.72C114.729 23.56 114.976 24.54 114.976 25.66ZM109.396 22.44C108.689 22.44 108.096 22.64 107.616 23.04C107.136 23.44 106.843 23.9867 106.736 24.68H112.036C111.929 24 111.636 23.46 111.156 23.06C110.676 22.6467 110.089 22.44 109.396 22.44ZM123.593 20.08C124.927 20.08 126 20.48 126.813 21.28C127.64 22.08 128.053 23.2667 128.053 24.84V31H124.933V25.32C124.933 24.4667 124.747 23.8333 124.373 23.42C124 22.9933 123.46 22.78 122.753 22.78C121.967 22.78 121.34 23.0267 120.873 23.52C120.407 24 120.173 24.72 120.173 25.68V31H117.053V20.24H120.033V21.5C120.447 21.0467 120.96 20.7 121.573 20.46C122.187 20.2067 122.86 20.08 123.593 20.08ZM136.199 31.16C135.052 31.16 134.019 30.9267 133.099 30.46C132.192 29.98 131.479 29.32 130.959 28.48C130.452 27.64 130.199 26.6867 130.199 25.62C130.199 24.5533 130.452 23.6 130.959 22.76C131.479 21.92 132.192 21.2667 133.099 20.8C134.019 20.32 135.052 20.08 136.199 20.08C137.332 20.08 138.319 20.32 139.159 20.8C140.012 21.2667 140.632 21.94 141.019 22.82L138.599 24.12C138.039 23.1333 137.232 22.64 136.179 22.64C135.365 22.64 134.692 22.9067 134.159 23.44C133.625 23.9733 133.359 24.7 133.359 25.62C133.359 26.54 133.625 27.2667 134.159 27.8C134.692 28.3333 135.365 28.6 136.179 28.6C137.245 28.6 138.052 28.1067 138.599 27.12L141.019 28.44C140.632 29.2933 140.012 29.96 139.159 30.44C138.319 30.92 137.332 31.16 136.199 31.16ZM149.277 20.08C150.61 20.08 151.684 20.48 152.497 21.28C153.324 22.08 153.737 23.2667 153.737 24.84V31H150.617V25.32C150.617 24.4667 150.43 23.8333 150.057 23.42C149.684 22.9933 149.144 22.78 148.437 22.78C147.65 22.78 147.024 23.0267 146.557 23.52C146.09 24 145.857 24.72 145.857 25.68V31H142.737V16.16H145.857V21.36C146.27 20.9467 146.77 20.6333 147.357 20.42C147.944 20.1933 148.584 20.08 149.277 20.08ZM169.149 31.24C167.722 31.24 166.429 30.9333 165.269 30.32C164.122 29.6933 163.216 28.8333 162.549 27.74C161.896 26.6333 161.569 25.3867 161.569 24C161.569 22.6133 161.896 21.3733 162.549 20.28C163.216 19.1733 164.122 18.3133 165.269 17.7C166.429 17.0733 167.729 16.76 169.169 16.76C170.382 16.76 171.476 16.9733 172.449 17.4C173.436 17.8267 174.262 18.44 174.929 19.24L172.849 21.16C171.902 20.0667 170.729 19.52 169.329 19.52C168.462 19.52 167.689 19.7133 167.009 20.1C166.329 20.4733 165.796 21 165.409 21.68C165.036 22.36 164.849 23.1333 164.849 24C164.849 24.8667 165.036 25.64 165.409 26.32C165.796 27 166.329 27.5333 167.009 27.92C167.689 28.2933 168.462 28.48 169.329 28.48C170.729 28.48 171.902 27.9267 172.849 26.82L174.929 28.74C174.262 29.5533 173.436 30.1733 172.449 30.6C171.462 31.0267 170.362 31.24 169.149 31.24ZM186.037 31L183.337 27.1H183.177H180.357V31H177.117V17H183.177C184.417 17 185.49 17.2067 186.397 17.62C187.317 18.0333 188.024 18.62 188.517 19.38C189.01 20.14 189.257 21.04 189.257 22.08C189.257 23.12 189.004 24.02 188.497 24.78C188.004 25.5267 187.297 26.1 186.377 26.5L189.517 31H186.037ZM185.977 22.08C185.977 21.2933 185.724 20.6933 185.217 20.28C184.71 19.8533 183.97 19.64 182.997 19.64H180.357V24.52H182.997C183.97 24.52 184.71 24.3067 185.217 23.88C185.724 23.4533 185.977 22.8533 185.977 22.08ZM204.564 31L204.544 22.6L200.424 29.52H198.964L194.864 22.78V31H191.824V17H194.504L199.744 25.7L204.904 17H207.564L207.604 31H204.564Z" fill="white"/>
<defs>
<clipPath id="clip0_1_111">
<rect width="48" height="48" fill="white"/>
</clipPath>
</defs>
</svg>
